<svg data-v-0dd9719b="" version="1.0" xmlns="http://www.w3.org/2000/svg" xmlns:xlink="http://www.w3.org/1999/xlink" width="100%" height="100%" viewBox="0 0 340.000000 250.000000" preserveAspectRatio="xMidYMid meet" color-interpolation-filters="sRGB" style="margin: auto;"> <rect data-v-0dd9719b="" x="0" y="0" width="100%" height="100%" fill="#fff" fill-opacity="1" class="background"></rect> <rect data-v-0dd9719b="" x="0" y="0" width="100%" height="100%" fill="url(#watermark)" fill-opacity="1" class="watermarklayer"></rect> <g data-v-0dd9719b="" fill="#333" class="icon-text-wrapper icon-svg-group iconsvg" transform="translate(54.01499938964844,95.47708892822266)"><g class="iconsvg-imagesvg" transform="translate(0,0)"><g><rect fill="#333" fill-opacity="0" stroke-width="2" x="0" y="0" width="60" height="59.04581955597544" class="image-rect"></rect> <svg x="0" y="0" width="60" height="59.04581955597544" filtersec="colorsb2392844561" class="image-svg-svg primary" style="overflow: visible;"><svg xmlns="http://www.w3.org/2000/svg" viewBox="-0.001022893120534718 0 59.18102264404297 58.2400016784668"><path d="M0 16.17v-.28C.13 9.06 5 3.57 11 3.57a9.7 9.7 0 0 1 3.9.82l4.49 4.45A23.32 23.32 0 0 0 2.93 30.91c0 12.82 10.72 23.22 24 23.22a23.92 23.92 0 0 0 22.52-15.45L52 41.2a11.8 11.8 0 0 1 1.78 6.24A12.09 12.09 0 0 1 47 58.24H12.51A12.67 12.67 0 0 1 0 45.41z" fill="#161b6d"></path><path d="M26.88 9.91c12 0 21.72 9.4 21.72 21s-9.73 21-21.72 21-21.72-9.4-21.72-21 9.72-21 21.72-21z" fill="#d13bfc" fill-opacity=".8"></path><path d="M39.93 0c10.63 0 19.25 8.33 19.25 18.61s-8.62 18.6-19.25 18.6-19.24-8.33-19.24-18.6S29.31 0 39.93 0z" fill="#5c36ee" fill-opacity=".8"></path></svg></svg> <!----></g></g> <g transform="translate(67,5.801662445068359)"><g data-gra="path-name" fill-rule="" class="tp-name iconsvg-namesvg" transform="translate(0,0)"><g transform="scale(1)"><g><path d="M3.42-24.03L14.17-24.03 14.17-27.81 3.33-27.81 3.33-32.27 41.67-32.27 41.67-27.81 30.11-27.81 30.11-24.03 41.63-24.03 41.63-3.51Q41.63-2.21 40.63-1.13L40.63-1.13Q39.6-0.18 38.2-0.18L38.2-0.18 3.42-0.18 3.42-24.03ZM36-19.48L30.11-19.48 30.11-14.26Q30.11-13.63 30.51-13.23L30.51-13.23Q31-12.82 31.45-12.82L31.45-12.82 36-12.82 34.06-8.41 28.75-8.41Q27.77-8.41 27.04-8.78L27.04-8.78Q26.64-8.91 26.32-9.16 26.01-9.4 25.74-9.63L25.74-9.63Q25.15-10.17 24.79-10.98L24.79-10.98Q24.48-11.83 24.48-12.64L24.48-12.64 24.48-19.48 19.8-19.48 19.8-13.95 16.02-8.55 10.13-8.55 14.17-14.67 14.17-19.48 9-19.48 9-4.63 35.05-4.63Q35.41-4.63 35.68-4.91L35.68-4.91Q36-5.22 36-5.58L36-5.58 36-19.48ZM19.8-27.81L19.8-24.03 24.48-24.03 24.48-27.81 19.8-27.81ZM85.63-21.64L83.16-21.64 83.16-20.38 85.63-20.38 85.63-15.93 83.16-15.93 83.16-15.57 83.16-10.44Q81-9.27 78.84-8.26 76.68-7.25 74.43-6.34L74.43-6.34Q77.22-5.71 80.01-5.26 82.8-4.81 85.63-4.59L85.63-4.59 85.63 0Q75.19-0.77 65.7-3.42L65.7-3.42Q60.88-2.07 55.91-1.21 50.94-0.36 45.77 0L45.77 0 45.77-4.59Q48.6-4.81 51.37-5.26 54.13-5.71 56.97-6.34L56.97-6.34Q54.67-7.25 52.52-8.26 50.35-9.27 48.2-10.44L48.2-10.44 48.2-15.93 45.77-15.93 45.77-20.38 48.2-20.38 48.2-21.64 45.77-21.64 45.77-29.92 62.41-29.92 61.29-32.45 68.13-32.45 69.21-29.92 80.69-29.92Q81.67-29.92 82.57-29.54 83.47-29.16 84.15-28.48 84.82-27.81 85.23-26.91 85.63-26.01 85.63-24.97L85.63-24.97 85.63-21.64ZM76.95-12.87L76.95-15.93 54.45-15.93 54.45-12.87Q57.28-11.7 60.05-10.66 62.82-9.63 65.66-8.73L65.66-8.73Q68.49-9.63 71.3-10.66 74.11-11.7 76.95-12.87L76.95-12.87ZM54.45-20.38L76.95-20.38 76.95-23.22 79.38-23.22 79.38-24.07Q79.38-24.66 78.97-25.06 78.57-25.47 77.98-25.47L77.98-25.47 51.98-25.47 51.98-23.22 54.45-23.22 54.45-20.38ZM91.62-24.79L94.28-27.99 87.34-27.99 87.34-32.4 126.86-32.4 126.86-27.99 100.22-27.99 97.56-24.79 126.09-24.79 126.09-24.66 126.09-20.38 126.09-3.38Q126.09-1.98 125.12-1.01 124.16-0.04 122.76-0.04L122.76-0.04 93.65-0.04 88.07-0.04 88.07-4.41 88.07-10.57 88.07-14.98 88.07-20.38 88.07-20.93 88.07-24.79 91.62-24.79ZM93.65-4.41L119.56-4.41Q119.97-4.41 120.24-4.7 120.51-5 120.51-5.4L120.51-5.4 120.51-10.57 93.65-10.57 93.65-4.41ZM120.51-14.98L120.51-20.38 93.65-20.38 93.65-14.98 120.51-14.98ZM141.08-11.29L143.33-18.81 140.31-18.81 140.31-23.22 144.63-23.22 145.35-25.61 140.31-25.61 140.31-30.06 146.66-30.06 147.38-32.45 153.41-32.45 152.78-30.06 168.3-30.06 168.3-25.61 151.61-25.61 150.98-23.22 168.21-23.22 168.21-18.81 149.81-18.81 149-15.71 168.21-15.71 163.62-0.94 159.25-0.94 157.05-0.94 151.83-0.94 152.42 0.04 145.62 0.04 141.12-6.75 148.46-6.75 149.27-5.35 158.4-5.35 160.25-11.29 141.08-11.29ZM132.53 0.04L132.53-20.25 128.7-20.25 133.7-32.45 139.77-32.45 136.67-24.88 138.33-24.88 138.33 0.04 132.53 0.04Z" transform="translate(-3.3299999237060547, 32.45000076293945)"></path></g> <!----> <!----> <!----> <!----> <!----> <!----> <!----></g></g> <g data-gra="path-slogan" fill-rule="" class="tp-slogan iconsvg-slogansvg" fill="#333" transform="translate(35.445003509521484,38.4900016784668)"><!----> <!----> <g transform="scale(1, 1)"><g transform="scale(1)"><path d="M7.64-8.58L4.73-4.41L7.78 0L6.33 0L3.98-3.52L1.64 0L0.23 0L3.33-4.41L0.42-8.58L1.88-8.58L4.03-5.30L6.23-8.58L7.64-8.58ZM9.05-8.58L10.22-8.58L10.22 0L9.05 0L9.05-8.58ZM12.89-5.53L12-5.53L12-8.58L12.89-8.58L12.89-5.53ZM20.11 0L19.27-2.48L15.80-2.48L14.91 0L13.73 0L16.97-8.58L18.28-8.58L21.38 0L20.11 0ZM17.53-7.31L16.17-3.52L18.84-3.52L17.58-7.31L17.53-7.31ZM23.81-8.58L28.13-1.64L28.13-8.58L29.25-8.58L29.25 0L27.94 0L23.58-6.94L23.53-6.94L23.53 0L22.41 0L22.41-8.58L23.81-8.58ZM37.59-7.64L35.53-7.64L35.53-4.97L37.59-4.97Q39.42-4.92 39.38-6.38L39.38-6.38Q39.38-7.64 37.59-7.64L37.59-7.64ZM38.06 0L34.36 0L34.36-8.58L38.16-8.58Q40.45-8.48 40.55-6.42L40.55-6.42Q40.55-5.16 39.42-4.64L39.42-4.64Q41.02-4.08 41.02-2.53L41.02-2.53Q40.88-0.09 38.06 0L38.06 0ZM37.78-3.98L35.53-3.98L35.53-0.98L38.02-0.98Q39.80-1.03 39.84-2.53L39.84-2.53Q39.84-3.98 37.78-3.98L37.78-3.98ZM48 0L47.16-2.48L43.69-2.48L42.80 0L41.63 0L44.86-8.58L46.17-8.58L49.27 0L48 0ZM45.42-7.31L44.06-3.52L46.73-3.52L45.47-7.31L45.42-7.31ZM50.48-8.58L51.66-8.58L51.66 0L50.48 0L50.48-8.58ZM60.80-6.05L60.80-6.05L59.67-6.05Q59.25-7.78 57.28-7.83L57.28-7.83Q54.56-7.69 54.47-4.36L54.47-4.36Q54.47-0.80 57.33-0.80L57.33-0.80Q59.30-0.84 59.77-3.19L59.77-3.19L60.89-3.19Q60.38 0.05 57.09 0.14L57.09 0.14Q53.34 0 53.25-4.31L53.25-4.31Q53.44-8.63 57.28-8.81L57.28-8.81Q60.33-8.72 60.80-6.05ZM63.42-5.06L67.92-5.06L67.92-8.58L69.09-8.58L69.09 0L67.92 0L67.92-3.98L63.42-3.98L63.42 0L62.25 0L62.25-8.58L63.42-8.58L63.42-5.06ZM76.55-3.19L76.55-8.58L77.72-8.58L77.72-3.05Q77.58 0.05 74.20 0.14L74.20 0.14Q71.06 0.05 70.92-2.86L70.92-2.86L70.92-8.58L72.09-8.58L72.09-3.19Q72.14-0.84 74.25-0.80L74.25-0.80Q76.55-0.84 76.55-3.19L76.55-3.19ZM85.17 0L84.33-2.48L80.86-2.48L79.97 0L78.80 0L82.03-8.58L83.34-8.58L86.44 0L85.17 0ZM82.59-7.31L81.23-3.52L83.91-3.52L82.64-7.31L82.59-7.31ZM88.88-8.58L93.19-1.64L93.19-8.58L94.31-8.58L94.31 0L93 0L88.64-6.94L88.59-6.94L88.59 0L87.47 0L87.47-8.58L88.88-8.58Z" transform="translate(-0.234375, 8.8125)"></path></g></g></g></g></g><defs v-gra="od"></defs></svg>